<svg xmlns="http://www.w3.org/2000/svg" width="128" height="128" viewBox="0 0 128 128">
  <defs>
    <linearGradient id="bg" x1="0" y1="0" x2="0" y2="1">
      <stop offset="0" stop-color="#2a0d45"/>
      <stop offset="1" stop-color="#0b0614"/>
    </linearGradient>
    <linearGradient id="paint" x1="0" y1="0" x2="1" y2="1">
      <stop offset="0" stop-color="#5b2a8c"/>
      <stop offset="0.6" stop-color="#321055"/>
      <stop offset="1" stop-color="#1d5a45"/>
    </linearGradient>
  </defs>
  <rect width="128" height="128" rx="22" fill="url(#bg)"/>
  <path d="M14 82 L22 66 Q30 60 44 58 L56 46 Q62 42 74 42 L90 43 Q98 44 104 54 L112 60 Q118 64 116 76 L114 84 Z" fill="url(#paint)"/>
  <path d="M60 48 L72 46 L86 47 L94 56 L56 57 Z" fill="#0e0a18" opacity="0.85"/>
  <rect x="100" y="36" width="18" height="4" rx="1" fill="#321055"/>
  <circle cx="36" cy="84" r="11" fill="#111"/><circle cx="36" cy="84" r="6" fill="#bbb"/>
  <circle cx="96" cy="84" r="11" fill="#111"/><circle cx="96" cy="84" r="6" fill="#bbb"/>
  <path d="M4 96 Q30 90 64 98 T124 96" stroke="#d8d8e8" stroke-width="3" fill="none" opacity="0.5"/>
</svg>
